<svg width="23" height="22" viewBox="0 0 23 22" fill="none" xmlns="http://www.w3.org/2000/svg">
<path d="M7.54942 16.3988C7.253 16.6475 6.99633 16.7709 6.72905 16.7682C6.11315 16.762 5.60012 16.132 4.57406 14.8722L3.20224 13.1877C2.6373 12.494 2.56818 11.4612 3.03455 10.6818C3.56728 9.79164 4.58896 9.54226 5.38521 9.98895M10.8057 7.71313C11.5221 6.9578 12.2865 6.20292 13.1203 5.43739C13.5225 5.06807 14.0239 4.93726 14.4982 5.02088" stroke="#2E8016" stroke-width="1.35827" stroke-linecap="round"/>
<path d="M13.6887 14.7861C15.735 12.4142 17.7105 10.8051 20.192 8.52644C20.9347 7.84439 21.0494 6.64888 20.4667 5.80187C19.8475 4.90167 18.6708 4.72175 17.8744 5.43739C15.6014 7.47983 13.833 9.44637 12.1556 11.5483C12.0675 11.6586 12.0235 11.7138 11.9778 11.7448C11.862 11.8235 11.7172 11.8244 11.6007 11.747C11.5547 11.7165 11.5106 11.6623 11.4224 11.5542L10.5285 10.4578C9.71293 9.45742 8.25006 9.56816 7.5691 10.6818C7.09256 11.4612 7.16318 12.494 7.74043 13.1877L9.14211 14.8722C10.1905 16.132 10.7147 16.762 11.344 16.7682C11.9734 16.7744 12.5451 16.1116 13.6887 14.7861Z" stroke="#2E8016" stroke-width="1.35827"/>
</svg>
