<svg width="1439" height="836" viewBox="0 0 1439 836" fill="none" xmlns="http://www.w3.org/2000/svg">
<rect x="-39.711" y="-517.404" width="74.5582" height="1466.8" stroke="#F8F8F8" stroke-width="1.38361"/>
<rect x="36.2309" y="-518.966" width="74.5582" height="1466.8" stroke="#F8F8F8" stroke-width="1.38361"/>
<rect x="112.173" y="-520.528" width="74.5582" height="1466.8" stroke="#F8F8F8" stroke-width="1.38361"/>
<rect x="188.115" y="-522.09" width="74.5582" height="1466.8" stroke="#F8F8F8" stroke-width="1.38361"/>
<rect x="264.056" y="-523.652" width="74.5582" height="1466.8" stroke="#F8F8F8" stroke-width="1.38361"/>
<rect x="339.998" y="-525.214" width="74.5582" height="1466.8" stroke="#F8F8F8" stroke-width="1.38361"/>
<rect x="415.94" y="-526.776" width="74.5582" height="1466.8" stroke="#F8F8F8" stroke-width="1.38361"/>
<rect x="491.882" y="-528.338" width="74.5582" height="1466.8" stroke="#F8F8F8" stroke-width="1.38361"/>
<rect x="567.824" y="-529.9" width="74.5582" height="1466.8" stroke="#F8F8F8" stroke-width="1.38361"/>
<rect x="643.766" y="-531.462" width="74.5582" height="1466.8" stroke="#F8F8F8" stroke-width="1.38361"/>
<rect x="719.707" y="-533.024" width="74.5582" height="1466.8" stroke="#F8F8F8" stroke-width="1.38361"/>
<rect x="795.649" y="-534.586" width="74.5582" height="1466.8" stroke="#F8F8F8" stroke-width="1.38361"/>
<rect x="871.591" y="-536.147" width="74.5582" height="1466.8" stroke="#F8F8F8" stroke-width="1.38361"/>
<rect x="947.533" y="-537.709" width="74.5582" height="1466.8" stroke="#F8F8F8" stroke-width="1.38361"/>
<rect x="1023.47" y="-539.271" width="74.5582" height="1466.8" stroke="#F8F8F8" stroke-width="1.38361"/>
<rect x="1099.42" y="-540.833" width="74.5582" height="1466.8" stroke="#F8F8F8" stroke-width="1.38361"/>
<rect x="1175.36" y="-542.395" width="74.5582" height="1466.8" stroke="#F8F8F8" stroke-width="1.38361"/>
<rect x="1251.3" y="-543.957" width="74.5582" height="1466.8" stroke="#F8F8F8" stroke-width="1.38361"/>
<rect x="1327.24" y="-545.519" width="74.5582" height="1466.8" stroke="#F8F8F8" stroke-width="1.38361"/>
<rect x="1403.19" y="-547.081" width="74.5582" height="1466.8" stroke="#F8F8F8" stroke-width="1.38361"/>
<rect x="-438.566" y="864.489" width="74.5582" height="2857.23" transform="rotate(-90 -438.566 864.489)" stroke="#F8F8F8" stroke-width="1.38361"/>
<rect x="-441.609" y="788.547" width="74.5582" height="2857.23" transform="rotate(-90 -441.609 788.547)" stroke="#F8F8F8" stroke-width="1.38361"/>
<rect x="-444.649" y="712.606" width="74.5582" height="2857.23" transform="rotate(-90 -444.649 712.606)" stroke="#F8F8F8" stroke-width="1.38361"/>
<rect x="-447.692" y="636.664" width="74.5582" height="2857.23" transform="rotate(-90 -447.692 636.664)" stroke="#F8F8F8" stroke-width="1.38361"/>
<rect x="-450.732" y="560.722" width="74.5582" height="2857.23" transform="rotate(-90 -450.732 560.722)" stroke="#F8F8F8" stroke-width="1.38361"/>
<rect x="-453.775" y="484.78" width="74.5582" height="2857.23" transform="rotate(-90 -453.775 484.78)" stroke="#F8F8F8" stroke-width="1.38361"/>
<rect x="-456.815" y="408.838" width="74.5582" height="2857.23" transform="rotate(-90 -456.815 408.838)" stroke="#F8F8F8" stroke-width="1.38361"/>
<rect x="-459.855" y="332.896" width="74.5582" height="2857.23" transform="rotate(-90 -459.855 332.896)" stroke="#F8F8F8" stroke-width="1.38361"/>
<rect x="-462.898" y="256.954" width="74.5582" height="2857.23" transform="rotate(-90 -462.898 256.954)" stroke="#F8F8F8" stroke-width="1.38361"/>
<rect x="-465.938" y="181.013" width="74.5582" height="2857.23" transform="rotate(-90 -465.938 181.013)" stroke="#F8F8F8" stroke-width="1.38361"/>
<rect x="-468.981" y="105.071" width="74.5582" height="2857.23" transform="rotate(-90 -468.981 105.071)" stroke="#F8F8F8" stroke-width="1.38361"/>
<rect x="-472.019" y="29.129" width="74.5582" height="2857.23" transform="rotate(-90 -472.019 29.129)" stroke="#F8F8F8" stroke-width="1.38361"/>
</svg>
